<?xml version="1.0" encoding="UTF-8" standalone="no"?>
<!-- Created with Inkscape (http://www.inkscape.org/) -->

<svg
   xmlns:dc="http://purl.org/dc/elements/1.1/"
   xmlns:cc="http://creativecommons.org/ns#"
   xmlns:rdf="http://www.w3.org/1999/02/22-rdf-syntax-ns#"
   xmlns:svg="http://www.w3.org/2000/svg"
   xmlns="http://www.w3.org/2000/svg"
   xmlns:sodipodi="http://sodipodi.sourceforge.net/DTD/sodipodi-0.dtd"
   xmlns:inkscape="http://www.inkscape.org/namespaces/inkscape"
   width="195.3503mm"
   height="163.91249mm"
   viewBox="0 0 692.18609 580.79229"
   id="svg2"
   version="1.1"
   inkscape:version="0.91 r"
   sodipodi:docname="icon.svg">
  <defs
     id="defs4" />
  <sodipodi:namedview
     id="base"
     pagecolor="#ffffff"
     bordercolor="#666666"
     borderopacity="1.0"
     inkscape:pageopacity="0.0"
     inkscape:pageshadow="2"
     inkscape:zoom="0.7"
     inkscape:cx="374.50672"
     inkscape:cy="153.53585"
     inkscape:document-units="px"
     inkscape:current-layer="layer1"
     showgrid="false"
     inkscape:window-width="1855"
     inkscape:window-height="1056"
     inkscape:window-x="65"
     inkscape:window-y="24"
     inkscape:window-maximized="1"
     fit-margin-top="0"
     fit-margin-left="0"
     fit-margin-right="0"
     fit-margin-bottom="0" />
  <metadata
     id="metadata7">
    <rdf:RDF>
      <cc:Work
         rdf:about="">
        <dc:format>image/svg+xml</dc:format>
        <dc:type
           rdf:resource="http://purl.org/dc/dcmitype/StillImage" />
        <dc:title></dc:title>
      </cc:Work>
    </rdf:RDF>
  </metadata>
  <g
     inkscape:label="Layer 1"
     inkscape:groupmode="layer"
     id="layer1"
     transform="translate(-27.573544,-66.868614)">
    <path
       style="fill:#c8beb7;fill-opacity:1;stroke:none;stroke-width:1;stroke-miterlimit:4;stroke-dasharray:12, 4;stroke-dashoffset:0;stroke-opacity:1"
       d="m 207.42969,222.61523 c -14.72889,2.3177 -27.00964,12.48473 -41.52539,15.52735 -9.95342,1.8693 -18.47306,8.72967 -22.12891,18.23047 -4.71522,10.47016 -10.80582,21.41135 -10.35156,33.20117 0.19722,3.004 5.61987,5.388 1.28913,7.45971 -5.77404,4.98371 -11.14977,11.43851 -17.33405,15.21412 -2.61253,-8.66654 -12.42928,-10.46504 -19.755863,-13.40235 -7.491309,-2.00399 -16.217184,-5.71034 -23.679688,-1.97265 -9.205962,9.77414 -14.204911,22.75893 -19.429687,34.94336 -10.533653,26.97087 -7.249353,60.00039 10.960937,82.92968 7.363225,9.3163 19.201979,13.56454 30.821327,13.60148 21.923954,2.30719 43.974254,5.13129 66.049764,3.21298 -2.17185,2.02122 -5.88228,7.55239 -0.73047,8.2539 5.31749,1.04928 11.37802,0.20151 14.41993,-4.80273 8.30029,-3.58597 18.13242,-2.57454 26.97578,-3.90389 4.87446,-1.15822 11.32721,0.90087 15.31523,-2.69181 0.919,-4.86081 -1.99418,-9.93629 -1.60351,-14.67188 -1.9266,-22.99829 -0.10642,-48.22889 15.45825,-66.72554 12.37149,-14.75181 25.98364,-29.91014 43.54956,-38.77446 5.51163,-2.06707 12.28089,-4.6542 17.69336,-1.2793 5.79345,-0.12771 4.06452,-8.47223 4.35937,-12.11328 0.0262,-3.7288 6.87964,-2.06177 9.55274,-2.89062 20.1024,-0.89968 41.17696,-0.42398 59.73203,8.54688 5.42207,2.38857 10.57575,-3.63564 15.92031,-4.99805 3.80954,-2.76947 10.12522,-2.31017 12.9668,-6.28711 0.0963,-5.00143 -7.09851,-4.23866 -10.48828,-3.77735 -4.00852,0.15432 -7.8752,3.19916 -11.65235,2.93946 -0.0192,-4.05526 0.48491,-9.07665 -3.55078,-11.59375 -3.84982,-4.74514 -5.64357,-14.45679 -13.50195,-13.88282 -8.80257,2.05731 -13.89155,11.11662 -21.41211,15.01368 -5.94065,-2.17625 -6.03887,-10.06067 -11.00391,-13.64454 -6.60853,-6.60328 -15.0606,-13.7404 -25.13503,-11.50572 -3.41194,0.31466 -8.63841,1.87422 -9.70286,-2.88685 -5.30066,-11.51225 -19.76303,-14.63828 -31.01328,-11.06284 -13.01414,3.97598 -23.34995,13.59341 -34.53359,20.76791 0.6062,-12.68833 -4.60752,-25.08574 -11.82422,-35.28125 -1.21927,-1.24393 -3.0002,-1.74716 -4.70703,-1.69336 z"
       id="path3536"
       inkscape:connector-curvature="0" />
    <ellipse
       style="fill:#ffe680;fill-opacity:1;stroke:none;stroke-width:1;stroke-miterlimit:4;stroke-dasharray:12, 4;stroke-dashoffset:0;stroke-opacity:1"
       id="path3526"
       cx="493.45953"
       cy="298.28333"
       rx="98.489876"
       ry="105.56094" />
    <path
       style="fill:#5d536c;fill-opacity:1;stroke:none;stroke-width:1;stroke-miterlimit:4;stroke-dasharray:12, 4;stroke-dashoffset:0;stroke-opacity:1"
       d="m 425.86133,291.72852 c -18.68696,0.0439 -37.03159,4.35058 -54.73828,10.01953 14.54986,8.86851 28.47878,19.8643 36.98828,34.81054 13.98284,23.44307 22.04076,52.80575 12.89453,79.17774 -4.49583,14.61415 -17.09568,24.25079 -27.74024,34.37109 -23.90586,17.80719 -52.97214,27.40788 -82.16512,32.53918 -22.88838,3.54393 -48.69013,3.96669 -67.74308,-11.43566 -11.98358,-9.81812 -18.64142,-24.39353 -23.44922,-38.74414 -3.91248,-2.73483 -6.48385,3.74746 -8.86718,6.03515 -3.71171,5.0945 -5.86397,11.0375 -10.13477,15.80469 -19.57775,29.78727 -31.34261,64.18253 -36.94357,99.25771 -2.97556,15.83065 -5.63127,31.76361 -6.14237,47.89659 9.40793,-8.18596 19.4642,-17.26003 31.95508,-20.06055 3.03607,-0.60889 7.03847,0.57542 6.45899,4.1875 2.74262,4.06705 6.49559,-2.06432 8.80837,-3.67341 22.19637,-22.05451 46.24985,-43.60312 77.13694,-52.21526 14.94919,-4.91647 30.73355,-6.02974 46.29632,-4.64577 5.09127,-0.47409 12.00561,2.90938 14.24921,-3.58467 13.99503,-17.63853 30.9732,-32.88567 47.78455,-47.65042 13.57249,-11.09075 28.09458,-21.52988 43.35937,-29.91211 3.50482,-3.39495 1.142,-9.19687 4.1644,-13.06464 9.76553,-18.08539 23.5454,-33.65638 37.14818,-48.92894 14.50089,-15.04792 31.46961,-27.43365 48.3632,-39.58064 3.48793,-3.90228 4.04062,-9.6684 8.21875,-13.2168 2.57963,-2.08974 3.19552,-6.09334 -0.75481,-6.91369 -32.43126,-17.1351 -67.89978,-31.04145 -105.14753,-30.47302 z"
       id="path3522"
       inkscape:connector-curvature="0" />
    <path
       style="fill:#1a1a1a;fill-opacity:1;stroke:none;stroke-width:1;stroke-miterlimit:4;stroke-dasharray:12, 4;stroke-dashoffset:0;stroke-opacity:1"
       id="path3424"
       d="m 290.45756,385.90316 c -0.26139,-0.64177 -0.60659,-1.25548 -0.78418,-1.92529 -1.29488,-4.88375 -1.22877,-10.22787 -1.18125,-15.21324 0.0934,-9.79636 0.28502,-9.80412 1.07883,-20.37351 1.79929,-15.76652 1.31938,-12.73624 3.80281,-29.28956 0.84081,-5.60446 2.03986,-11.16103 2.62013,-16.79843 0.42222,-4.1019 1.07311,-26.84522 1.20638,-31.03647 0,0 0.67056,-0.56903 0.67056,-0.56903 l 0,0 c -0.16322,5.14191 -0.29001,10.2851 -0.48966,15.42572 -0.20216,5.20551 -0.78807,10.40298 -0.71573,15.61192 0.0633,4.55804 0.75348,9.08578 1.12183,13.62937 1.19599,14.75261 0.8471,10.30609 1.83371,24.45356 0.80192,11.03234 0.98093,22.39379 4.88474,32.88076 0,0 -14.04817,13.2042 -14.04817,13.2042 z"
       inkscape:connector-curvature="0" />
    <path
       style="fill:#1a1a1a;fill-opacity:1;stroke:none;stroke-width:1;stroke-miterlimit:4;stroke-dasharray:12, 4;stroke-dashoffset:0;stroke-opacity:1"
       id="path3428"
       d="m 316.57013,387.96241 c 9.90461,-3.60086 20.20744,-5.67532 30.66336,-6.89636 4.19503,-0.4899 8.41212,-0.76754 12.61818,-1.15131 14.52787,-1.2092 28.86401,2.05904 43.3348,2.37252 5.63153,0.12199 11.26149,-0.30843 16.89224,-0.46264 0,0 -0.56934,0.67031 -0.56934,0.67031 l 0,0 c -5.63052,0.15441 -11.27775,0.003 -16.89155,0.46322 -17.59368,1.44233 -34.78501,5.76154 -52.21195,8.3231 -4.51482,0.79954 -9.04871,1.49801 -13.54445,2.39864 -7.96006,1.59463 -12.58597,2.84898 -20.13123,5.06101 -4.24436,1.24431 -6.21978,1.80324 -10.00097,3.45749 -0.74247,0.32482 -1.44703,0.73022 -2.17053,1.09533 0,0 12.01144,-15.33131 12.01144,-15.33131 z"
       inkscape:connector-curvature="0" />
    <path
       style="fill:#1a1a1a;fill-opacity:1;stroke:none;stroke-width:1;stroke-miterlimit:4;stroke-dasharray:12, 4;stroke-dashoffset:0;stroke-opacity:1"
       id="path3434"
       d="m 283.20017,315.01076 c -3.26415,0.7656 -6.60971,0.96544 -9.83947,1.89003 -3.35525,0.96051 -3.69008,1.24421 -7.02853,2.69297 -8.42907,4.0959 -16.1581,9.57904 -22.99716,15.97985 -1.77753,1.66363 -3.44246,3.44365 -5.16368,5.16546 2.12653,-1.90248 4.10856,-7.43489 6.37958,-5.70745 2.23008,1.69629 -3.4539,4.42044 -4.9967,6.75933 -1.64077,2.4874 -3.17658,5.05108 -4.54117,7.70006 -3.17723,6.16771 -5.42961,12.07539 -7.09927,18.83099 -0.90052,3.64363 -1.39009,7.37669 -2.08513,11.06504 -0.3142,3.95929 -0.84452,7.90734 -0.94259,11.87786 -0.3965,16.05313 2.37267,32.61199 9.25112,47.21284 1.60203,3.40062 3.70852,6.53987 5.56277,9.8098 2.2726,2.82709 4.2991,5.87105 6.81781,8.48128 7.69198,7.97153 17.468,13.42829 28.11817,16.33242 10.1211,2.75985 14.3855,2.415 24.92228,2.99619 4.60968,-0.28739 9.23858,-0.3529 13.82906,-0.86216 18.50684,-2.05314 37.43166,-7.4736 54.64596,-14.49726 3.9914,-1.62855 7.8712,-3.51826 11.8068,-5.27739 10.07582,-5.25526 20.0808,-11.10361 28.01507,-19.39938 0.70884,-0.74115 -3.0063,2.50003 -2.66823,1.5318 1.08248,-3.10034 3.64618,-5.48651 5.08046,-8.44062 1.50834,-3.10666 2.47571,-6.448 3.71357,-9.67201 0.79217,-3.69176 1.86623,-7.33413 2.3765,-11.07528 2.43735,-17.86974 -0.52396,-36.68108 -8.07655,-53.03896 -2.12221,-4.59643 -4.92761,-8.84548 -7.3914,-13.26821 -3.18243,-4.11587 -6.04886,-8.49674 -9.54729,-12.34762 -11.03388,-12.14546 -24.88222,-21.17682 -40.35633,-26.62325 -12.03229,-4.23502 -20.46925,-4.99157 -32.9549,-6.96408 -0.95962,-0.0582 -28.23519,-1.76956 -30.2987,-1.68795 -4.69334,0.18562 -9.31493,1.21643 -13.97238,1.82464 0,0 0.56128,-0.67706 0.56128,-0.67706 l 0,0 c 4.8157,-0.79308 9.63688,-1.55357 14.44709,-2.37923 24.18416,-4.15122 10.61787,-2.88567 35.01153,-3.64741 5.86815,0.52509 11.79629,0.58726 17.60446,1.57527 16.64416,2.8313 32.7841,9.4369 46.15213,19.81585 11.36819,8.82626 12.82561,12.23942 21.40677,23.50193 2.4379,4.51764 5.16764,8.88955 7.31369,13.5529 7.4491,16.18694 11.52208,34.47486 9.88726,52.32046 -0.33679,3.67646 -1.23021,7.28051 -1.84532,10.92077 -2.3632,6.60888 -3.94692,12.87276 -8.4902,18.46448 -5.76558,7.0961 -15.13582,17.08044 -23.31277,23.15637 -7.62943,5.66909 -11.40247,7.25917 -19.88908,11.79083 -4.02474,1.83149 -7.99226,3.79436 -12.07424,5.49447 -22.18642,9.24043 -45.74418,15.25782 -69.81755,16.17426 -10.75133,-0.32 -15.54996,0.16408 -25.9186,-2.51793 -11.07872,-2.86569 -20.8629,-8.55285 -28.56702,-17.03758 -2.49635,-2.74928 -4.48799,-5.91771 -6.73198,-8.87656 -4.902,-9.13801 -6.58806,-11.27508 -9.75469,-21.30679 -4.89512,-15.50744 -6.2155,-31.92428 -5.00998,-48.07422 1.3523,-9.29469 1.30282,-11.89554 4.19798,-20.69415 1.9701,-5.98731 4.39339,-11.02245 7.7068,-16.35819 1.44543,-2.32761 2.90467,-4.6762 4.71455,-6.73322 5.33602,-6.06466 11.11911,-11.72085 16.67867,-17.58127 1.79466,-1.7579 3.53412,-3.57399 5.384,-5.27368 7.12418,-6.54574 15.1008,-12.36291 23.98023,-16.27128 4.65295,-1.5352 10.26594,-3.51872 14.96148,-1.13118 0,0 -9.15616,10.50322 -9.15616,10.50322 z"
       inkscape:connector-curvature="0" />
    <path
       style="fill:#1a1a1a;fill-opacity:1;stroke:none;stroke-width:1;stroke-miterlimit:4;stroke-dasharray:12, 4;stroke-dashoffset:0;stroke-opacity:1"
       id="path3438"
       d="m 199.9529,454.78343 c -0.42092,0.29845 -0.85865,0.57528 -1.26275,0.89535 -1.33735,1.05924 -4.92639,4.70541 -3.68995,3.53396 19.12883,-18.12342 16.51937,-17.2143 10.98326,-9.66635 -1.08769,1.48297 -2.11248,3.00947 -3.16871,4.5142 -8.32118,12.68594 -15.62554,26.06792 -21.27795,40.11586 -1.59637,3.96746 -2.96162,8.02084 -4.44244,12.03125 -6.98729,19.56531 -10.43619,40.05528 -13.85895,60.43687 -0.9782,5.82498 -2.36737,11.59938 -2.90985,17.47893 -0.47209,5.11648 -0.0833,10.27452 -0.12488,15.41179 0,0 -0.70261,0.59422 -0.70261,0.59422 l 0,0 c -0.46715,-4.71499 -0.77444,-9.44788 -1.40147,-14.14495 -0.59247,-4.4381 -1.85852,-8.78532 -2.25485,-13.24443 -0.41994,-4.72459 -0.36909,-9.4873 -0.18685,-14.22647 0.53265,-13.85104 3.22034,-27.51397 6.85434,-40.87087 1.27445,-3.89375 2.454,-7.81868 3.82331,-11.68127 4.72933,-13.34064 10.85455,-26.21332 18.2395,-38.33297 7.98885,-12.33209 9.65922,-12.44886 24.07096,-26.79691 1.62442,-1.61725 3.49162,-3.03387 5.5617,-4.05268 0,0 -14.25181,18.00447 -14.25181,18.00447 z"
       inkscape:connector-curvature="0" />
    <path
       style="fill:#1a1a1a;fill-opacity:1;stroke:none;stroke-width:1;stroke-miterlimit:4;stroke-dasharray:12, 4;stroke-dashoffset:0;stroke-opacity:1"
       id="path3440"
       d="m 367.19948,310.70189 c 0.36585,-0.22888 0.73171,-0.45776 1.09756,-0.68664 0,0 -0.5328,0.69969 -0.5328,0.69969 l 0,0 c -0.36486,0.22964 -0.7297,0.45929 -1.09455,0.68893 0,0 0.52979,-0.70198 0.52979,-0.70198 z"
       inkscape:connector-curvature="0" />
    <path
       style="fill:#1a1a1a;fill-opacity:1;stroke:none;stroke-width:1;stroke-miterlimit:4;stroke-dasharray:12, 4;stroke-dashoffset:0;stroke-opacity:1"
       id="path3450"
       d="m 359.42999,307.09617 c 5.69633,-6.17012 1.46628,-1.78658 21.50037,-12.52535 1.62856,-0.87294 3.42898,-1.56068 5.21794,-2.24411 5.86284,-2.23977 11.73885,-4.08419 18.13671,-5.48242 4.26768,-0.93268 8.66882,-1.55949 13.00324,-2.33924 5.06419,-0.41229 10.07395,-1.1058 15.19259,-1.23686 24.59513,-0.62979 49.97009,4.48961 71.75032,14.81801 5.78634,2.74393 11.00077,6.17707 16.50117,9.2656 20.98321,16.65128 7.9549,4.94558 24.78226,23.68003 3.51608,3.91459 7.26525,7.71197 10.89787,11.56796 0,0 -0.80454,0.44344 -0.80454,0.44344 l 0,0 c -3.62939,-3.85277 -6.47422,-8.20057 -10.88817,-11.55832 -5.80323,-4.4146 -27.6485,-14.73221 -34.21052,-17.95233 -15.17793,-6.30924 -21.5458,-9.52279 -37.67759,-13.99525 -18.11034,-5.02101 -36.01625,-7.23909 -54.6586,-6.15377 -5.2746,0.30708 -10.40273,1.20079 -15.60409,1.80118 -4.45344,0.94672 -8.98535,1.73367 -13.36033,2.84015 -6.3476,1.6054 -12.85706,3.85929 -18.68392,6.31567 -1.8143,0.76484 -6.869,3.49676 -5.26591,2.50641 4.03493,-2.49272 21.11869,-11.84204 12.38064,-7.05328 0,0 -18.20944,7.30248 -18.20944,7.30248 z"
       inkscape:connector-curvature="0" />
    <path
       style="fill:#1a1a1a;fill-opacity:1;stroke:none;stroke-width:1;stroke-miterlimit:4;stroke-dasharray:12, 4;stroke-dashoffset:0;stroke-opacity:1"
       id="path3452"
       d="m 184.03992,604.18925 c 11.60396,-15.85915 26.10199,-29.18626 40.14985,-42.80837 15.00645,-13.16143 31.88205,-24.12492 50.70226,-30.99999 12.46366,-4.55301 15.77147,-4.62399 28.60262,-6.99959 20.42866,-1.00929 5.43244,-0.83009 24.38349,0.28225 3.68073,0.21605 7.36939,0.26412 11.05408,0.39617 0,0 -0.56843,0.67108 -0.56843,0.67108 l 0,0 c -4.17696,0.45407 -8.37758,0.72724 -12.5309,1.36219 -9.75822,1.49182 -19.32734,4.08237 -29.09444,5.52709 -11.9816,2.63751 -17.2844,3.36831 -28.86073,7.68528 -19.0884,7.11832 -36.04164,18.49449 -51.05145,32.15303 -4.11571,0.24386 -0.60002,-0.0695 -8.0896,7.96741 -5.22892,5.61103 -10.29714,11.42895 -14.97647,17.50557 0,0 -9.72028,7.25788 -9.72028,7.25788 z"
       inkscape:connector-curvature="0" />
    <path
       style="fill:#1a1a1a;fill-opacity:1;stroke:none;stroke-width:1;stroke-miterlimit:4;stroke-dasharray:12, 4;stroke-dashoffset:0;stroke-opacity:1"
       id="path3454"
       d="m 335.74138,534.301 c -0.0997,-0.54269 -0.3214,-1.07704 -0.29922,-1.62806 0.16463,-4.0876 3.11783,-8.26468 5.36894,-11.40046 4.78204,-6.66139 7.21632,-8.92773 13.03486,-15.35247 11.82875,-11.62956 18.17624,-18.05873 32.238,-30.46246 5.88651,-5.19244 19.48676,-15.4239 25.9014,-19.89255 4.11417,-2.86605 8.2595,-5.70429 12.58775,-8.24801 3.34104,-1.96354 6.9228,-3.50175 10.38422,-5.25263 3.55096,-1.96914 7.10191,-3.93827 10.65286,-5.90741 0,0 -0.57658,0.74048 -0.57658,0.74048 l 0,0 c -3.88026,2.39792 -7.76051,4.79584 -11.64076,7.19376 -14.36151,10.68208 -28.97917,21.09015 -42.96647,32.24772 -4.42543,3.53014 -8.60055,7.36005 -13.08386,10.81901 -0.15602,0.12037 -0.31784,-0.50013 -0.46303,-0.36732 -3.04771,2.78761 -5.82093,5.8514 -8.73141,8.7771 -6.00299,6.89845 -14.06786,15.2859 -16.41743,24.41517 0,0 -15.98927,14.31813 -15.98927,14.31813 z"
       inkscape:connector-curvature="0" />
    <path
       style="fill:#1a1a1a;fill-opacity:1;stroke:none;stroke-width:1;stroke-miterlimit:4;stroke-dasharray:12, 4;stroke-dashoffset:0;stroke-opacity:1"
       id="path3456"
       d="m 436.52927,444.95212 c -0.9605,-1.32565 -2.10274,-2.74467 -2.35005,-4.46311 -0.55157,-3.83253 1.01887,-7.30401 2.38013,-10.70566 1.00278,-1.82705 1.92087,-3.70826 3.00837,-5.48114 2.86644,-4.67301 7.21508,-10.6178 10.43437,-14.84881 7.67803,-10.091 15.90513,-19.61301 24.24686,-29.09618 10.60562,-11.19573 21.67853,-17.94644 33.07304,-28.60681 3.6306,-3.3967 16.88182,-10.94962 16.88182,-10.94962 5.36591,0.4887 3.95757,-0.18702 5.93635,-0.28052 l -0.57044,0.76922 0,0 c 10.98728,17.93925 -15.73605,11.73573 -23.23397,17.60044 -3.528,2.75953 -6.38825,6.45893 -10.1733,8.80382 -1.67436,1.03729 5.14596,-6.0817 3.65841,-4.76775 -3.30304,2.91763 -7.11069,2.37224 -10.16096,5.57865 -2.84041,3.24687 -5.73408,6.44329 -8.52122,9.7406 -9.7875,11.57908 -18.97351,23.80507 -26.76298,36.96354 -1.47188,2.86426 -2.87447,5.33965 -3.9738,8.37318 -1.18843,3.27938 -1.88157,6.85149 -2.18196,10.3345 z"
       inkscape:connector-curvature="0"
       sodipodi:nodetypes="cscsscsccccssscscscc" />
    <path
       style="fill:#1a1a1a;fill-opacity:1;stroke:none;stroke-width:1;stroke-miterlimit:4;stroke-dasharray:12, 4;stroke-dashoffset:0;stroke-opacity:1"
       id="path3472"
       d="m 387.31317,478.09239 c 1.46253,6.17535 4.47178,11.9637 7.43406,17.53339 10.82088,18.63106 23.28656,36.23542 35.62677,53.87411 13.65243,19.44779 27.80051,38.54101 42.9309,56.86585 5.34054,6.04307 10.26176,12.67672 16.52739,17.83265 0.51153,0.47368 1.55185,1.29013 2.06238,1.4391 -2.85321,-2.5907 -0.11534,-8.4e-4 0.76587,0.39565 1.26409,0.39245 2.6039,0.41116 3.91264,0.32059 4.27027,-0.39184 8.16273,-2.38228 11.90939,-4.32343 3.58312,-2.01451 6.99017,-4.32938 10.1522,-6.95812 1.17563,-0.97734 2.32322,-1.98994 3.43258,-3.04191 1.15608,-1.0963 4.50325,-4.50906 3.36001,-3.39939 -4.28121,4.15552 -8.5163,8.35828 -12.77445,12.53741 4.80213,-5.5019 9.39839,-11.30654 12.61711,-17.90459 0.52912,-1.08467 0.96563,-2.2121 1.44844,-3.31816 2.22412,-5.7063 2.93142,-11.86496 1.75275,-17.90403 -0.25831,-1.32346 -0.68482,-2.60846 -1.02724,-3.91269 -1.77741,-4.73961 -4.20192,-9.62362 -8.3738,-12.7452 -1.84286,-1.37891 -3.3565,-1.74005 -5.45924,-2.47624 -0.008,-8.7e-4 -4.77407,-0.70718 -4.96995,-0.84006 -0.56948,-0.38633 -0.35817,-1.54039 -0.99082,-1.81115 -0.74089,-0.31708 -1.59339,0.24279 -2.39008,0.36418 0,0 0.53282,-0.69968 0.53282,-0.69968 l 0,0 c 1.96009,-1.60764 3.9057,-3.23311 5.88028,-4.82292 4.52017,-3.63936 7.24462,-6.57464 12.64819,-8.3332 1.41012,-0.45893 2.93914,-0.39717 4.40871,-0.59576 1.21736,0.28838 2.51028,0.35385 3.65209,0.86513 1.09952,0.49233 2.03736,1.30196 2.94825,2.09037 4.20002,3.63527 6.6904,8.80332 8.88768,13.78241 1.06621,2.98099 1.7945,4.64601 2.39214,7.7479 0.95361,4.94943 0.42822,9.87959 -1.24528,14.61411 -0.49111,1.19579 -0.93088,2.41397 -1.47334,3.58735 -3.17473,6.867 -7.87671,12.88069 -12.66177,18.68049 -6.49178,6.63488 -12.96222,13.2907 -19.47534,19.90465 -5.74535,5.8343 -12.05933,11.12956 -19.20063,15.18391 -4.42029,2.36627 -8.99436,4.75302 -14.10193,5.0358 -1.7885,-0.0348 -3.55993,-0.0677 -5.20895,-0.86313 -0.39729,-0.20118 -0.76897,-0.43827 -1.18785,-0.59036 -0.0756,-0.0274 -0.28174,-0.13552 -0.22957,-0.0743 0.14211,0.16679 2.72318,2.4608 -0.46824,-0.39254 -0.27888,-0.76196 -0.49123,-1.91739 -0.97045,-2.68967 -3.22962,-7.73455 -8.03755,-14.73394 -12.39446,-21.84798 -12.83959,-20.18829 -26.164,-40.08271 -40.36073,-59.34591 -7.24793,-9.46358 -9.17356,-12.07665 -16.48557,-21.24798 -7.74599,-9.71568 -15.87481,-19.20171 -22.45714,-29.7773 -3.58283,-6.02331 -7.81354,-12.24668 -7.18981,-19.58167 0,0 15.81399,-13.15768 15.81399,-13.15768 z"
       inkscape:connector-curvature="0" />
    <path
       style="fill:#1a1a1a;fill-opacity:1;stroke:none;stroke-width:1;stroke-miterlimit:4;stroke-dasharray:12, 4;stroke-dashoffset:0;stroke-opacity:1"
       id="path3474"
       d="m 159.47094,601.62153 c -0.20575,-3.49209 3.03438,-6.32768 6.14507,-8.99354 6.62251,-4.1852 11.94149,-9.77292 20.7093,-12.09539 2.09699,-0.55546 4.32002,-1.02318 6.63401,-0.64926 1.07847,0.17427 1.9782,0.65118 2.96729,0.97676 6.27795,5.8988 -2.19912,-2.76588 2.84935,5.6704 0.54892,0.91728 1.92665,1.52953 2.88997,2.29428 0,0 -0.60463,0.3903 -0.60463,0.3903 l 0,0 c -1.28135,-0.5491 -2.3233,-1.48333 -3.84405,-1.64732 -3.79535,-0.40924 -7.64611,1.27685 -11.49605,0.69026 -3.48145,0.20728 -7.12005,0.32419 -10.2979,1.38761 -1.0173,0.34042 -3.60232,1.78627 -2.86414,1.22373 2.49136,-1.89863 15.19642,-9.97031 7.74691,-5.22511 -2.89542,2.14302 -6.18543,4.65971 -6.10183,7.65857 0,0 -14.7333,8.31871 -14.7333,8.31871 z"
       inkscape:connector-curvature="0" />
    <path
       style="fill:#1a1a1a;fill-opacity:1;stroke:none;stroke-width:1;stroke-miterlimit:4;stroke-dasharray:12, 4;stroke-dashoffset:0;stroke-opacity:1"
       id="path3476"
       d="m 547.09775,330.29253 c -1.54449,0.6336 -0.45164,0.10284 -2.05185,1.15082 -1.1918,0.78055 -1.34287,0.74565 -2.46496,1.65732 -0.98658,0.80156 -1.84768,1.65901 -2.77057,2.48888 -0.86291,1.1339 -2.22672,2.14874 -3.26104,3.24025 -0.62,0.65426 -1.111,1.32655 -1.70403,1.98524 -0.56353,0.62593 -1.23624,1.23592 -1.7632,1.86599 -0.60411,0.72233 -1.05028,1.45121 -1.61733,2.1758 -0.49738,0.63561 -1.04917,1.26806 -1.57374,1.90208 -0.0521,0.0585 -2.08611,2.47818 -2.6688,2.69 -1.78507,0.64894 -1.19421,-1.1903 -1.44708,0.70716 0,0 -0.0438,0.5084 -0.0438,0.5084 l 0,0 c -1.16071,-4.55991 -2.95808,-9.04119 0.10559,-15.15909 0.52186,-0.83344 0.94886,-1.66327 1.56557,-2.5003 0.51193,-0.6948 1.22014,-1.37765 1.80136,-2.0694 0.61366,-0.73033 1.12745,-1.46985 1.78204,-2.19548 0.5683,-0.62998 1.26751,-1.23382 1.87357,-1.85712 2.77885,-2.85799 0.64556,-0.93207 3.54121,-3.40139 1.80642,-1.50825 3.91466,-3.10173 6.10986,-4.2841 0.4059,-0.2186 0.83805,-0.34811 1.24291,-0.56903 0.35144,-0.19176 0.66749,-0.43704 1.00125,-0.65553 0,0 2.34315,12.31957 2.34315,12.31957 z"
       inkscape:connector-curvature="0" />
    <path
       style="fill:#1a1a1a;fill-opacity:1;stroke:none;stroke-width:1;stroke-miterlimit:4;stroke-dasharray:12, 4;stroke-dashoffset:0;stroke-opacity:1"
       id="path3490"
       d="m 151.93265,446.01803 c -5.38454,-0.0769 -10.76929,0.0323 -16.1545,-0.0501 -10.20732,-0.31845 -20.40431,-0.8763 -30.61468,-1.11717 -6.779869,-0.26947 -13.568452,-0.0876 -20.333287,0.40277 -2.313594,0.003 -4.543698,0.45219 -6.791917,0.89596 -0.440374,0.14044 -0.926413,0.21412 -1.240431,0.57672 -0.0672,0.19522 -0.532844,0.44108 -0.801857,0.41738 -0.489609,0.14465 -1.021944,0.0526 -1.532579,0.14182 -0.702249,0.20846 -1.492065,0.31149 -2.22308,0.27541 -0.749746,0.0645 -1.499712,-0.003 -2.249231,8.7e-4 -1.527623,-0.0594 -2.97265,-0.47136 -4.384857,-1.04852 -2.80776,-1.24442 -5.532189,-2.67271 -8.144641,-4.28606 -4.279129,-2.59637 -7.582729,-6.35977 -10.58276,-10.2989 -3.831855,-5.0968 -6.694539,-10.80194 -9.611429,-16.44302 -2.637487,-5.14862 -4.183228,-10.66888 -5.180974,-16.3373 -1.320169,-7.05999 -1.98213,-14.2224 -1.907695,-21.4012 0.150218,-8.77566 2.426528,-17.30104 4.809554,-25.68747 2.639716,-9.34203 6.814719,-18.07176 11.505576,-26.52885 4.827323,-8.42421 10.466488,-16.33255 16.934993,-23.56612 3.906522,-2.85245 17.992199,-21.95555 28.440419,-24.86687 2.357937,-0.65702 3.168003,-0.48025 5.580258,-0.45811 6.363478,0.97256 12.326948,3.5448 18.364478,5.67529 5.24397,1.81158 10.58055,3.38837 15.5474,5.89254 2.2827,1.07935 3.96945,2.90586 5.66564,4.7063 0.77755,0.62911 1.35549,1.26425 1.94226,2.08328 -6.92134,6.48762 -13.84269,12.97524 -20.76404,19.46286 -0.17213,8.7e-4 -0.70575,0.0178 -0.86707,-0.04 -0.72377,-0.25884 -1.26712,-0.92277 -1.7446,-1.47445 -1.42961,-2.39094 -1.36708,-5.28962 -1.48786,-7.99195 -0.33215,-5.79522 1.51226,-11.21207 3.52834,-16.54905 2.78359,-7.10825 6.12775,-13.98342 9.56192,-20.79609 2.21098,-4.70729 5.10252,-8.98517 8.39446,-12.98925 9.69913,-10.99186 19.85923,-21.5505 32.03564,-29.6722 4.95951,-3.16616 10.53448,-4.99859 16.20726,-6.38736 3.77695,-1.00224 7.60513,-1.87486 11.17661,-3.49119 3.18367,-1.63724 6.19533,-3.57771 9.36469,-5.24687 3.38642,-1.67088 6.92616,-2.99671 10.4087,-4.44825 2.89699,-1.31901 5.77282,-2.4727 8.98474,-2.47205 3.29224,0.2406 5.56565,2.35394 7.6124,4.72947 2.38854,3.35194 4.09719,7.1376 5.67005,10.92503 1.80547,4.24335 3.49166,8.55372 4.8676,12.95701 0.64455,1.85391 1.37653,3.72432 1.65207,5.67624 0.23345,0.58483 -0.1358,2.10559 0.62174,2.35119 0.38707,0.0242 0.68583,-0.25008 1.07455,-0.25385 0.0617,-0.45712 -0.10291,-0.0226 -0.17347,0.0754 -2.49059,-2.5654 -2.90962,-1.85245 -0.74161,-3.64932 2.79092,-1.98179 5.7203,-3.75863 8.59302,-5.61784 4.31372,-2.8065 8.45355,-5.86837 12.90225,-8.46104 4.42763,-2.53714 9.35912,-3.34578 14.37456,-3.63891 4.32199,-0.23029 8.64736,-0.0532 12.88449,0.84494 2.94459,0.63381 5.57518,2.12962 7.98761,3.88515 1.93392,1.52089 3.49677,3.41279 4.9846,5.35464 1.23546,1.61241 2.27363,3.35575 3.31898,5.09407 0.42375,0.97436 0.21648,0.84995 0.88428,0.6172 0.86177,-0.1895 1.72174,-0.35259 2.59684,-0.48556 1.68812,-0.19828 3.3835,-0.35317 5.06988,-0.56873 0.887,0.0189 1.73064,-0.33145 2.60381,-0.35939 0.71658,-0.009 1.44357,-0.0243 2.15764,0.0556 1.3026,0.14587 2.50472,0.68951 3.68421,1.23879 2.05761,0.88437 4.03817,1.96206 5.94008,3.14457 1.89361,1.09991 3.45823,2.64293 5.13862,4.02676 0.96118,0.57297 1.76287,1.45323 2.75277,1.95902 0.49663,0.4224 0.98228,0.857 1.46451,1.30077 0.63117,0.56547 1.26177,1.14118 1.78769,1.80714 0.77302,0.91323 1.65646,1.70662 2.48718,2.56955 0.91939,1.22012 1.64679,2.58335 2.26607,3.9746 0.43053,0.9426 0.83407,1.89164 1.30613,2.8152 0.45611,0.76748 0.70603,1.63554 1.11996,2.41587 0.10409,0.15963 0.63209,0.1692 0.87897,0.19785 0.6884,0.13756 1.36085,-0.12567 2.03482,-0.21338 0.49644,-0.0916 0.54472,-0.64207 0.80205,-1.01046 0.28612,-0.4096 0.63465,-0.7719 0.94662,-1.16216 -39.53382,40.7691 -6.83233,5.01164 5.9207,-5.5635 2.01067,-1.6658 4.01522,-3.32549 6.18386,-4.78178 2.74907,-1.95418 5.08368,-2.32836 8.35098,-1.72071 2.59645,0.65906 4.63671,2.15751 6.49641,4.00383 1.26502,1.27773 2.12969,2.80272 2.79579,4.4576 0.5434,1.57693 1.19157,3.12447 1.55397,4.75387 -0.10292,0.75721 0.68188,1.04231 0.86597,1.6213 0.17182,0.28905 0.66692,0.34617 0.98266,0.50569 0.92037,0.3726 1.73589,0.87055 2.51466,1.48868 0.88338,0.87032 1.43684,1.92644 1.79413,3.10748 0.40138,1.12054 0.21679,2.31492 0.3213,3.47237 0.0988,0.80967 -0.25224,1.6684 -0.1426,2.46096 -0.0617,0.34663 -0.11201,0.52449 0.068,0.7686 0.46247,0.49863 -1.03035,-1.068 -1.15156,-1.27435 0.80307,-0.48035 1.67675,-0.75228 2.57193,-1.01521 1.93705,-0.70922 3.86167,-1.40757 5.85774,-1.94246 4.63577,-0.68454 8.87741,1.26119 13.07492,2.92613 0.86319,0.38601 1.74327,0.73629 2.58958,1.15803 0.6296,0.31374 3.85714,2.1576 4.52419,2.54998 1.59895,0.94057 3.14121,1.79888 4.50401,3.05533 1.29783,2.50182 -0.65057,3.50876 -2.21554,5.11674 -1.62757,1.67229 -3.18046,3.41566 -4.77069,5.12349 0,0 0.69246,-0.54218 0.69246,-0.54218 l 0,0 c -4.77506,5.63703 -3.30789,5.07072 -7.28905,7.5627 -0.92749,0.58056 -1.86406,1.25742 -3.00708,1.32609 -0.40491,0.0243 -0.80201,-0.12228 -1.20302,-0.18342 -1.5499,-0.82081 -2.87669,-1.90053 -4.39048,-2.7923 -1.90232,-1.12064 -2.38526,-1.32897 -4.45373,-2.22727 -0.82113,-0.3566 -1.65208,-0.69012 -2.47811,-1.03518 -4.08424,-1.30928 -8.51643,-2.26671 -12.67872,-0.72956 -2.04933,0.75123 -4.02481,1.68381 -6.08499,2.4068 -0.94203,0.40679 -1.86544,0.93074 -2.89677,1.05464 -0.63713,-0.18108 -2.27704,-1.05271 -2.10559,-1.8582 -0.0446,-0.62337 -0.13256,-1.24042 -0.0705,-1.82333 0.16391,-0.8101 0.0822,-1.67684 0.28,-2.49455 0.17598,-1.01533 0.0389,-2.0583 0.22194,-3.07677 -0.0353,-0.61495 -0.0397,-1.35843 -0.56136,-1.76185 -0.53104,-0.50081 -1.27075,-0.66537 -1.95964,-0.85475 -0.97379,-0.33673 -1.8241,-0.89274 -2.41941,-1.75353 -0.42682,-0.61935 -0.27865,-1.61736 -0.92081,-2.19475 -0.64604,-1.44268 -0.94863,-3.01044 -1.57344,-4.46521 -0.54167,-1.29044 -1.1534,-2.52606 -2.17786,-3.51146 -1.43621,-1.38016 -3.15295,-2.46169 -5.16687,-2.70583 -2.67147,0.0602 -4.79844,1.43332 -6.86262,3.04607 -2.05784,1.61306 -4.06929,3.28776 -6.05776,4.98532 -0.71155,0.63356 -2.76473,2.62219 -2.09229,1.94725 6.05446,-6.07686 12.12013,-12.14253 18.18159,-18.21239 0.61689,-0.61774 -1.2179,1.25115 -1.83362,1.87004 -6.71456,6.74915 -13.43743,13.49001 -20.15614,20.23501 -1.13236,0.91079 -2.07433,1.49346 -3.55779,1.18635 -0.88831,-0.0235 -1.7673,-0.2939 -2.62453,-0.51224 -1.02997,-0.42362 -1.98041,-0.90845 -2.58327,-1.91042 -0.31079,-0.80153 -0.72859,-1.56398 -1.05108,-2.36464 -0.46032,-0.97159 -0.91142,-1.93364 -1.27695,-2.94627 -0.53111,-1.12355 -0.9025,-2.35427 -1.74227,-3.30521 -0.74719,-0.90386 -1.69933,-1.63353 -2.48676,-2.506 -0.55411,-0.4976 -1.0762,-1.03408 -1.5959,-1.56649 -0.48575,-0.38888 -0.95361,-0.80145 -1.44922,-1.16963 -0.73361,-0.90265 -1.86304,-1.45352 -2.65519,-2.31162 -1.39847,-1.4028 -2.75414,-2.85105 -4.49718,-3.84575 -1.87381,-1.01261 -3.77221,-1.96877 -5.79977,-2.64108 -1.03434,-0.29818 -2.06561,-0.52299 -3.14641,-0.3901 -0.63469,0.0563 -1.27397,0.0578 -1.9,0.18698 -0.79588,0.14281 -1.60328,-0.0578 -2.41173,0.11212 -1.67644,0.13214 -3.34965,0.35983 -4.99366,0.71457 -1.17713,0.19646 -2.35989,0.4088 -3.51959,-0.002 -1.16905,-0.53394 -2.01925,-1.23737 -2.56236,-2.43432 -0.76762,-1.73683 -1.6804,-3.39506 -2.79793,-4.93314 -1.31776,-1.73447 -2.71743,-3.43404 -4.47186,-4.74933 -2.12458,-1.57418 -4.45898,-2.54425 -7.08439,-2.9804 -4.11242,-0.54685 -8.27562,-0.63526 -12.40603,-0.19266 -4.89308,0.80989 -9.62704,2.1664 -13.81495,4.93067 -4.47295,2.90202 -8.7847,6.03909 -13.19691,9.03163 -3.15506,2.17969 -6.29808,4.3925 -9.2047,6.90043 -2.38274,1.91456 -2.19853,1.98833 -4.76358,-0.64032 -0.1381,0.0192 -0.20048,-0.16071 -0.16908,-0.39767 0.51801,-0.0555 0.82956,-0.65888 1.10335,-1.03967 0.49112,-0.90259 0.482,-1.88681 0.48033,-2.8942 -0.0931,-1.97134 -0.34692,-3.90804 -0.76373,-5.8472 -1.04,-4.43499 -2.3608,-8.78067 -4.27567,-12.92918 -1.68148,-3.41527 -3.25506,-6.93647 -5.54873,-9.99689 -1.55382,-1.83237 -3.28295,-3.20539 -5.81999,-2.91174 -2.86373,0.53161 -5.50451,1.80885 -8.2075,2.85318 -3.46401,1.43808 -6.966,2.818 -10.23056,4.6828 -3.23316,1.83179 -6.35375,3.90427 -9.82271,5.27703 -3.61702,1.21468 -7.33672,2.04263 -11.0607,2.86004 -5.49237,1.58968 -10.65613,3.31992 -15.33662,6.76027 -2.50872,1.8035 -4.95825,3.65649 -7.27944,5.70049 -0.73594,0.64806 -2.84913,2.69462 -2.16186,1.99515 3.42425,-3.48513 23.8673,-23.97943 15.09379,-15.18319 -3.5707,3.90744 -6.74529,8.13074 -9.22898,12.82416 -3.56842,6.73659 -7.06683,13.52284 -9.86319,20.62548 -1.75591,4.80904 -3.57239,9.7326 -3.32596,14.93873 0.14224,2.04185 0.28588,4.10487 0.79532,6.08668 -0.23618,-0.33623 0.12891,-0.49206 0.40154,-0.60194 -6.72798,6.44132 -13.45597,12.88264 -20.18396,19.32396 0.93943,1.00329 1.30971,1.45623 1.26184,-0.003 -0.55474,-2.02922 -2.14864,-3.34 -3.81682,-4.51588 -4.61147,-2.68605 -9.57092,-4.59506 -14.625242,-6.29104 -5.81524,-2.04285 -11.731914,-4.44592 -17.958434,-4.64809 -2.201601,0.24514 -2.718841,0.1534 -4.800489,0.98213 -8.205711,3.26683 -20.968145,19.71945 7.467536,-10.00851 -6.785545,7.06789 -12.694972,14.88696 -17.632813,23.36176 -4.664295,8.22627 -8.84089,16.7298 -11.525946,25.83294 -2.394942,7.99788 -4.422828,16.13638 -4.567148,24.53612 0.1519,6.92903 0.711398,13.81713 2.052118,20.62912 1.15395,5.3812 2.425541,10.73202 4.881456,15.70135 2.479031,5.63001 5.355178,11.12965 9.181865,15.97466 3.081071,3.50162 6.36814,6.73912 10.549755,8.91713 2.587832,1.35738 5.215676,2.69978 8.064734,3.42127 1.328206,0.23087 2.658578,0.38355 4.00497,0.24219 0.708557,8.7e-4 1.416055,-0.0646 2.125301,-0.062 0.675379,-0.10125 1.403163,-0.13049 2.084211,-0.0522 0.446048,0.0365 1.066848,-0.0538 1.44787,0.11811 0.527121,-0.0379 -0.07609,0.22464 -0.08944,0.41852 -0.190154,0.32332 0.07487,0.38395 0.366247,0.51909 1.854409,0.36186 3.692581,0.66504 5.615079,0.58902 6.26747,0.42088 12.51529,1.05864 18.76781,1.657 9.90542,1.0597 19.84785,2.12091 29.82658,1.77987 5.75254,-0.28839 11.48228,-0.82024 17.23059,-1.1546 0,0 -13.92622,16.30552 -13.92622,16.30552 z"
       inkscape:connector-curvature="0" />
    <path
       style="fill:#1a1a1a;fill-opacity:1;stroke:none;stroke-width:1;stroke-miterlimit:4;stroke-dasharray:12, 4;stroke-dashoffset:0;stroke-opacity:1"
       id="path3492"
       d="m 108.77931,472.84917 c -6.24762,5.01492 -22.702349,21.95754 1.11192,-1.93672 -7.41696,7.29515 -14.274238,15.13914 -21.617745,22.50404 -3.233237,3.24265 -10.002798,9.64243 -13.414174,12.88725 0,0 -0.707045,0.52301 -0.707045,0.52301 l 0,0 c -0.107592,-0.3821 -0.39495,-0.75596 -0.322776,-1.14629 0.4669,-2.52519 3.094221,-5.09152 4.456451,-6.71561 4.351962,-5.18853 8.998569,-10.12668 13.680922,-15.0149 6.651877,-6.69521 13.298527,-13.39564 19.955637,-20.08564 3.87308,-3.89221 7.67385,-8.05351 12.27457,-11.09895 0,0 -15.41776,20.08381 -15.41776,20.08381 z"
       inkscape:connector-curvature="0" />
    <path
       style="fill:#1a1a1a;fill-opacity:1;stroke:none;stroke-width:1;stroke-miterlimit:4;stroke-dasharray:12, 4;stroke-dashoffset:0;stroke-opacity:1"
       id="path3494"
       d="m 136.1336,493.26364 c -0.36431,0.26158 -0.74727,0.49896 -1.09294,0.78473 -0.7296,0.60317 -3.21487,2.92254 -3.77129,3.45736 -0.85744,0.82417 -3.38487,3.3427 -2.54394,2.5017 17.8548,-17.85622 18.35547,-18.40358 10.04496,-9.91024 -7.41254,7.57656 -15.35712,14.60987 -23.14377,21.79467 0,0 -0.70997,0.51905 -0.70997,0.51905 l 0,0 c 0.44935,-0.87786 0.96403,-1.72525 1.34805,-2.6336 1.99321,-4.71465 -1.48627,0.6128 3.47682,-5.75811 9.46325,-10.68867 3.72388,-4.34906 23.92312,-24.46441 1.19717,-1.1922 3.24558,-3.04915 4.73591,-4.06639 0.56778,-0.38754 1.94293,-1.02297 2.61419,-1.34488 0,0 -14.88114,19.12012 -14.88114,19.12012 z"
       inkscape:connector-curvature="0" />
    <path
       style="fill:#1a1a1a;fill-opacity:1;stroke:none;stroke-width:1;stroke-miterlimit:4;stroke-dasharray:12, 4;stroke-dashoffset:0;stroke-opacity:1"
       id="path3496"
       d="m 148.20838,530.40699 c -0.12026,0.20526 -0.21629,0.42677 -0.36079,0.61575 -2.33954,3.05968 -5.15197,5.84349 -7.73491,8.68195 -7.6816,8.44152 -2.19863,2.52224 -11.29979,12.21567 -5.57834,6.21361 -11.72265,11.87663 -17.49121,17.90463 -2.42137,2.53027 -4.71884,5.17625 -7.07825,7.76437 0,0 -0.70733,0.52266 -0.70733,0.52266 l 0,0 c 1.51122,-1.96174 3.14941,-3.83191 4.53364,-5.88522 0.91561,-1.35817 1.56335,-2.87886 2.34503,-4.3183 1.19215,-1.68632 2.3843,-3.37265 3.57645,-5.05897 5.51575,-7.17756 11.20664,-14.30902 17.82665,-20.51125 0,0 16.39051,-11.93129 16.39051,-11.93129 z"
       inkscape:connector-curvature="0" />
    <path
       style="fill:#1a1a1a;fill-opacity:1;stroke:none;stroke-width:1;stroke-miterlimit:4;stroke-dasharray:12, 4;stroke-dashoffset:0;stroke-opacity:1"
       id="path3498"
       d="m 88.604354,536.80447 c -5.929093,5.92346 -12.063078,11.63455 -18.61014,16.86876 -3.878939,2.44621 -1.970351,1.31583 -5.713885,3.41113 0,0 0.519777,-0.70943 0.519777,-0.70943 l 0,0 c 9.462451,-10.0335 4.765978,-5.08941 14.087072,-14.83451 6.519053,-6.50596 12.934499,-13.24653 20.20561,-18.92223 0,0 -10.488434,14.18628 -10.488434,14.18628 z"
       inkscape:connector-curvature="0" />
    <path
       style="fill:#1a1a1a;fill-opacity:1;stroke:none;stroke-width:1;stroke-miterlimit:4;stroke-dasharray:12, 4;stroke-dashoffset:0;stroke-opacity:1"
       id="path3500"
       d="m 57.9373,485.62195 c -0.642523,0.49924 -1.281024,1.0037 -1.927571,1.49771 -4.501245,3.43931 -0.247324,0.0683 -5.36927,4.27088 -0.890841,0.73095 -2.953457,3.29813 -2.685041,2.17749 0.421293,-1.7589 12.112428,-13.12774 -3.055256,2.2538 0,0 -0.707732,0.52209 -0.707732,0.52209 l 0,0 c 4.867607,-7.72037 1.932466,-3.46848 13.24709,-15.74558 3.597834,-3.90389 7.558389,-7.90647 12.312819,-10.39398 0,0 -11.815039,15.41759 -11.815039,15.41759 z"
       inkscape:connector-curvature="0" />
    <path
       style="fill:#1a1a1a;fill-opacity:1;stroke:none;stroke-width:1;stroke-miterlimit:4;stroke-dasharray:12, 4;stroke-dashoffset:0;stroke-opacity:1"
       id="path3502"
       d="m 52.101133,530.69433 c -0.351088,0.26704 -0.713089,0.52031 -1.053264,0.80112 -1.344735,1.11006 -5.035294,4.8256 -3.803719,3.59119 4.226701,-4.23644 8.433232,-8.49315 12.68623,-12.70319 2.177412,-2.15541 -4.295866,4.36967 -6.459277,6.53914 -3.188616,3.19755 -6.397787,6.37453 -9.596679,9.56179 -2.54424,2.89486 -5.088482,5.78971 -7.632722,8.68456 0,0 -0.705484,0.52513 -0.705484,0.52513 l 0,0 c 1.326051,-1.99159 2.652102,-3.98317 3.978153,-5.97475 0.619452,-2.82812 0.535545,-3.99022 2.721287,-6.37029 6.284063,-6.84275 12.899107,-13.37442 19.413848,-19.99794 1.887216,-1.91872 3.91641,-3.83835 6.467838,-4.81602 0,0 -16.016211,20.15926 -16.016211,20.15926 z"
       inkscape:connector-curvature="0" />
    <path
       style="fill:#1a1a1a;fill-opacity:1;stroke:none;stroke-width:1;stroke-miterlimit:4;stroke-dasharray:12, 4;stroke-dashoffset:0;stroke-opacity:1"
       id="path3504"
       d="m 91.579704,560.38151 c -4.394416,5.06282 -8.372014,10.46878 -12.625748,15.64663 -3.984784,4.85047 -11.439812,13.53011 -15.315396,18.06939 0,0 -0.702027,0.52973 -0.702027,0.52973 l 0,0 c 1.461073,-4.09943 1.858171,-5.75538 4.035348,-9.60734 2.663251,-4.71194 6.078207,-8.99666 9.305156,-13.32331 0,0 15.302667,-11.3151 15.302667,-11.3151 z"
       inkscape:connector-curvature="0" />
    <path
       style="fill:#1a1a1a;fill-opacity:1;stroke:none;stroke-width:1;stroke-miterlimit:4;stroke-dasharray:12, 4;stroke-dashoffset:0;stroke-opacity:1"
       id="path3506"
       d="m 42.148248,571.21176 c -0.542469,0.50734 -2.148539,2.05125 -1.627407,1.52201 3.032576,-3.07971 5.957741,-6.27483 9.16284,-9.17456 2.141504,-1.93749 -3.980519,4.18508 -5.965927,6.28222 -11.752834,12.41428 -6.847475,6.32345 -15.441602,18.47851 0,0 -0.702608,0.52895 -0.702608,0.52895 l 0,0 c 15.234367,-21.55797 2.229378,-0.8386 6.797246,-12.07581 0.515719,-1.2687 1.180093,-2.51547 2.095908,-3.53372 8.840287,-9.82913 10.730566,-11.5154 17.249254,-17.57559 0,0 -11.567704,15.54799 -11.567704,15.54799 z"
       inkscape:connector-curvature="0" />
    <path
       style="fill:#1a1a1a;fill-opacity:1;stroke:none;stroke-width:1;stroke-miterlimit:4;stroke-dasharray:12, 4;stroke-dashoffset:0;stroke-opacity:1"
       id="path3510"
       d="m 175.00051,447.38343 c -2.47669,-0.97678 -5.02057,-1.62775 -7.66815,-1.93247 -0.67212,0.0618 -1.54777,-0.33022 -2.21367,-0.0522 -0.16711,0.0697 -0.54199,0.48013 -0.41202,0.35405 14.62297,-14.18421 7.82277,-14.59556 15.05496,-14.02137 2.68622,-0.0544 5.35672,-0.39367 8.02263,-0.72296 6.45576,-0.97582 12.97893,-1.33069 19.48348,-1.81696 3.06895,0.0917 6.16612,-0.97279 9.23488,-0.42636 0.77638,0.13824 2.27062,0.5729 2.00209,1.8218 -0.2094,0.97385 -0.86973,1.79234 -1.30459,2.68851 -0.5651,0.87419 -1.1302,1.74839 -1.69529,2.62259 0,0 -0.5359,0.69733 -0.5359,0.69733 l 0,0 c -1.12008,1.18911 -2.24016,2.37823 -3.36023,3.56735 -2.94775,2.54344 -3.5611,3.53996 -6.84571,4.9776 -3.89513,1.70485 -8.13342,1.30313 -12.26081,1.58074 -6.54865,0.40653 -13.06179,1.14005 -19.55477,2.08029 -3.01536,0.34402 -6.03533,0.95439 -8.18795,-1.63103 -4.14291,-6.31108 -0.79305,-0.73449 13.42996,-15.46407 0.12984,-0.13446 -0.0872,0.36397 -0.11519,0.54878 -0.10079,0.6658 0.0465,1.29368 0.20942,1.93985 0.69217,2.29922 1.94956,4.07159 4.02398,5.33148 0,0 -7.30712,7.85711 -7.30712,7.85711 z"
       inkscape:connector-curvature="0" />
    <path
       style="fill:#1a1a1a;fill-opacity:1;stroke:none;stroke-width:1;stroke-miterlimit:4;stroke-dasharray:12, 4;stroke-dashoffset:0;stroke-opacity:1"
       id="path3512"
       d="m 404.06607,242.96117 c 0.3856,-0.8502 0.2199,-1.79953 0.43718,-2.6773 0.15921,-0.6432 0.46564,-1.24215 0.64945,-1.87875 0.15879,-0.54991 0.19253,-1.13337 0.37678,-1.67527 0.036,-0.10576 1.65964,-3.81736 1.74047,-4.00241 1.81505,-3.34675 4.2767,-6.21274 6.97554,-8.86948 17.25652,-16.98735 10.5576,-11.76937 19.63711,-18.57472 6.81579,-5.25813 14.31926,-9.68587 22.42349,-12.65446 1.99025,-0.72904 4.04035,-1.28295 6.06053,-1.92443 4.99829,-1.03906 8.66251,-1.96551 13.81443,-2.33344 2.50446,-0.17885 5.02157,-0.13181 7.53202,-0.0875 2.71559,0.048 5.44068,0.0627 8.13989,0.36429 3.79341,0.42383 12.68531,2.45044 16.33065,3.2393 4.34117,1.57139 11.43689,4.04934 15.64271,5.93773 7.2983,3.2769 14.69803,7.56242 21.36452,11.98073 2.23424,1.48078 4.36914,3.10623 6.55372,4.65935 8.4663,6.2363 4.83829,3.2356 12.66507,10.32202 2.04993,1.85603 4.2084,3.60117 6.13093,5.58888 1.93058,1.99604 3.64511,4.19132 5.40565,6.33882 1.75166,2.13666 3.57867,4.22427 5.12895,6.51124 1.56172,2.30382 2.78894,4.81747 4.18339,7.22622 5.14076,9.58416 8.27381,20.04982 10.60992,30.62906 1.02981,4.66362 1.834,9.37461 2.82488,14.04665 0.32596,2.16734 0.65191,4.33467 0.97786,6.50201 0.40532,1.93359 0.90263,3.85016 1.21594,5.80078 0.31142,1.93883 0.4225,3.90466 0.65614,5.8544 0.21597,1.80232 0.57318,3.59013 0.69265,5.40141 0.29382,4.45462 -0.0653,6.64106 -0.44863,11.0675 -0.44629,1.90601 -0.72293,3.8599 -1.33886,5.71804 -4.30735,12.99435 -14.31513,23.94908 -23.29093,33.90761 -11.58578,12.06516 -12.79155,13.46567 -29.72919,29.49147 -3.70122,3.50196 -10.13223,8.50932 -14.4185,11.3878 -5.77737,3.87983 -7.77982,4.64866 -13.91024,7.72484 -4.58542,1.67486 -8.29124,3.18696 -13.05019,4.30573 -1.95519,0.45964 -3.95476,0.70655 -5.93985,1.01226 -1.9482,0.30003 -3.89225,0.66542 -5.85849,0.80471 -1.26103,0.0893 -8.77421,-0.1099 -10.09311,-0.13981 -7.74359,-0.94389 -15.50855,-2.28999 -22.88336,-4.87747 -6.47895,-1.57731 0.27583,0.27878 -4.83759,-1.66291 -0.58591,-0.22248 -1.23581,-0.24711 -1.81829,-0.47841 -0.65073,-0.25841 -1.82783,-1.06922 -2.52639,-1.45325 -6.30634,-9.06578 -1.66978,-1.47857 19.36338,-21.24836 0.15711,-0.14767 0.31255,0.32893 0.52128,0.38295 0.87303,0.22596 0.92765,-0.57077 0.9446,0.92981 -1.90991,3.58157 -4.96112,6.35509 -7.50492,9.47473 0,0 -0.52604,0.70479 -0.52604,0.70479 l 0,0 c -3.02642,3.28953 -5.95991,6.70792 -9.41254,9.56252 -0.19289,0.10628 -1.18551,0.68833 -1.48175,0.73226 -0.0952,0.0141 -0.15427,-0.18353 -0.24524,-0.15219 -0.16411,0.0565 -0.49393,0.48794 -0.37164,0.36476 20.01052,-20.15846 26.20901,-13.17793 18.68869,-20.82926 -0.12095,0.67582 1.32255,0.87941 1.62145,1.04862 0.45403,0.25704 0.79192,0.69831 1.26022,0.92834 0.65568,0.32209 1.3824,0.47288 2.0736,0.70931 0.75617,0.38057 1.51234,0.76114 2.26853,1.14171 2.11385,0.58273 4.18273,1.32133 6.29709,1.90219 1.20975,0.33236 2.44666,0.55648 3.66908,0.83865 3.99442,0.92202 7.9929,1.861 12.1094,2.04859 1.49049,0.13119 2.97537,0.37242 4.47148,0.39357 1.70115,0.024 3.39862,-0.16531 5.09739,-0.2583 1.72024,-0.0942 3.45246,-0.0708 5.15952,-0.30315 1.95572,-0.26617 3.87897,-0.73859 5.80075,-1.18854 6.689,-1.5661 5.62088,-1.43768 12.27223,-4.07677 2.12403,-1.0387 4.30831,-1.96235 6.37211,-3.11611 4.62454,-2.58531 9.33911,-5.93409 13.47725,-9.21194 2.34466,-1.85721 8.37442,-8.3644 6.85917,-5.7855 -0.70338,1.19711 -20.35942,20.7454 -1.72118,2.1117 7.68002,-8.48905 15.73116,-16.99465 21.18486,-27.1745 2.35441,-4.39475 2.86411,-6.75554 4.33654,-11.43467 0.32146,-1.86997 0.76287,-3.72324 0.96438,-5.6099 0.20789,-1.94631 0.33087,-9.54682 0.22443,-11.39515 -0.11133,-1.93335 -0.48253,-3.84349 -0.66754,-5.77118 -1.06643,-11.11179 0.23183,-1.69535 -1.50345,-12.83999 -1.93572,-15.45889 -4.94656,-30.93567 -12.0927,-44.93412 -2.31884,-3.82864 -6.04464,-10.22618 -8.79112,-13.76942 -1.67005,-2.15454 -3.59957,-4.09528 -5.43831,-6.10779 -1.839,-2.01279 -3.61452,-4.0923 -5.594,-5.96711 -1.73605,-1.64426 -10.55999,-8.74244 -12.44489,-10.27118 -4.19568,-2.85487 -8.96662,-6.18521 -13.31566,-8.80833 -5.21704,-3.14666 -8.8259,-4.97185 -14.35422,-7.54701 -2.46777,-1.14952 -4.91376,-2.36291 -7.46495,-3.31303 -2.6011,-0.9687 -5.30903,-1.6219 -7.96355,-2.43286 -2.60942,-0.6997 -5.17479,-1.59143 -7.82827,-2.09911 -2.70766,-0.51805 -5.46761,-0.72235 -8.21324,-0.97006 -2.60051,-0.23462 -5.20771,-0.49501 -7.81871,-0.47635 -7.27139,0.052 -14.58448,1.3339 -21.52163,3.43804 -4.97339,1.80532 -6.93064,2.33762 -11.5934,4.70703 -6.11171,3.10571 -11.71958,7.06249 -17.11556,11.26149 -7.53532,6.48217 -3.55548,3.21497 8.39866,-9.06849 0.66764,-0.68603 -1.38135,1.32614 -2.05033,2.01087 -1.76629,1.80786 -3.46619,3.69499 -4.71585,5.9085 -1.90072,3.21205 -3.15319,6.70315 -4.15895,10.28644 0,0 -15.5527,12.74023 -15.5527,12.74023 z"
       inkscape:connector-curvature="0" />
    <path
       style="fill:#1a1a1a;fill-opacity:1;stroke:none;stroke-width:1;stroke-miterlimit:4;stroke-dasharray:12, 4;stroke-dashoffset:0;stroke-opacity:1"
       id="path3518"
       d="m 446.17927,170.9789 c -2.95948,-6.93618 -6.16446,-13.78808 -9.27604,-20.66993 -5.2793,-11.56084 -9.26,-23.64223 -13.46034,-35.61921 -0.71892,-2.67941 -1.75002,-5.26019 -2.54766,-7.91436 -0.63285,-2.10583 -0.94235,-4.49941 -2.16821,-6.38003 4.79916,-4.439372 9.24746,-9.291042 14.39748,-13.318117 0.42647,-0.333488 0.71197,0.816076 1.05324,1.23635 0.4417,0.543945 0.85892,1.107355 1.29517,1.655688 2.41036,3.029731 5.09714,5.794075 7.72286,8.637862 10.92657,11.710847 20.61201,24.496667 30.32784,37.207497 9.07653,11.75462 17.9613,23.67459 27.6907,34.90373 2.84079,2.71941 6.6187,7.70063 11.12706,7.08792 1.27936,-0.14302 1.05236,-2.06956 2.08578,-2.39772 0.19286,-0.0613 0.40367,0.0291 0.6055,0.0436 1.0376,-0.22431 2.09495,-0.39695 3.10485,-0.73054 0.57979,-0.16186 1.09153,-0.68736 1.7104,-0.6157 0.13328,0.0737 0.50384,0.33201 0.39982,0.22083 -0.3712,-0.39674 -0.89771,-0.64649 -1.21244,-1.08937 -0.0795,-0.11185 0.28222,0.0106 0.40968,-0.0402 0.26247,-0.10464 0.4958,-0.27149 0.73786,-0.41725 1.72738,-1.0402 2.20406,-1.39956 4.12561,-2.68072 10.65661,-7.50612 20.86116,-15.68727 30.46706,-24.50153 2.70783,-2.48468 5.32774,-5.06352 7.99161,-7.59528 -1.36223,1.31924 -5.29954,5.41549 -4.08669,3.95772 2.3594,-2.83585 5.05398,-5.37564 7.53659,-8.10428 2.3758,-2.61125 4.71157,-5.25886 7.03775,-7.91441 6.1057,-6.97022 12.09457,-14.02937 18.27318,-20.93624 11.60972,-12.762409 24.13265,-24.638208 36.8303,-36.298863 7.71308,-7.457634 -10.57875,10.21763 -14.20271,14.102366 -0.2053,0.220082 0.28353,0.532395 0.4535,0.780791 0.35327,0.516302 0.99685,0.895795 1.11415,1.510294 0.009,0.04544 -1.12551,0.728329 -1.73661,1.102243 -5.948,4.714079 -14.09969,12.971926 11.86747,-12.101749 0.60275,-0.582015 -1.13066,1.240445 -1.63226,1.911601 -1.7066,2.283482 -2.20289,3.449636 -3.61588,6.051479 -0.73338,1.481849 -1.47993,2.957249 -2.20013,4.445545 -3.00907,6.218233 -5.93082,12.472695 -9.13789,18.594173 -3.28689,6.27382 -5.08395,9.33627 -8.59832,15.55712 -7.27157,12.75712 -15.34262,25.07426 -21.96476,38.19647 -1.04437,2.06951 -1.99855,4.18332 -2.99783,6.27497 -3.20203,7.24165 -6.03086,14.71566 -7.45574,22.52733 0.19745,0.44958 -0.78141,2.74696 -0.0581,2.96297 -3.60768,-2.86186 -2.67464,-1.85339 -0.82892,-2.55834 0.62012,-0.13583 1.08708,-0.53095 1.60921,-0.85763 0.39178,0.34477 0.81167,0.66004 1.17535,1.03434 0.25636,0.26385 0.79742,1.1683 0.47137,0.99793 -0.27166,-0.14196 -0.43363,-0.43352 -0.64223,-0.6581 -0.56628,-0.60964 -0.69677,-0.51407 -0.18642,-0.57566 5.40241,0.89126 10.8535,1.48629 16.29949,2.04388 13.9197,1.57097 27.9335,1.11668 41.90331,0.80421 11.38957,-0.30752 22.82915,-0.49074 34.18136,0.67285 6.33179,0.64901 7.06722,0.91446 13.07598,2.05755 6.78138,1.50337 13.45494,3.58402 19.79823,6.425 0.38565,0.16517 1.54727,0.61656 1.96299,0.93619 8.11983,6.24329 -12.68006,22.22943 -19.55419,21.67082 -0.82356,-0.10694 -1.59892,0.17955 -2.37345,0.42106 -2.34354,1.06129 -4.77984,1.91274 -7.19551,2.8038 -10.99195,3.7523 -21.6843,8.29793 -32.31258,12.96392 -13.16069,5.83107 -25.84302,12.65941 -38.14856,20.11106 -2.04902,1.41448 -4.45168,2.57169 -6.20118,4.40393 -0.23684,0.24804 -0.82996,1.08735 -0.58805,0.84424 17.47683,-17.56348 22.45195,-11.28804 16.56791,-18.16882 -0.0938,-0.15505 -0.24224,-0.28822 -0.28126,-0.46515 -0.022,-0.0999 1.35391,-0.39409 1.50358,-0.44452 0.54206,-0.10373 1.09138,-0.36021 1.54794,-0.67842 0.11205,0.011 0.19589,-0.26476 0.27521,-0.27053 0.16245,-0.0118 1.05454,0.60792 1.13827,0.65242 4.36136,2.40924 8.83701,4.6613 13.05435,7.32305 1.70754,1.07769 3.34798,2.25823 5.02197,3.38734 13.0634,8.88794 25.19678,19.02791 37.43726,28.99228 11.14866,9.07864 22.62613,17.75839 33.44149,27.23757 4.70827,4.41581 9.42825,8.9287 13.21163,14.19209 1.35374,1.88332 2.03143,3.15729 3.16188,5.11566 1.41372,2.46525 1.92005,5.22549 2.67522,7.91499 2.74819,10.10043 -10.60044,21.17179 -20.80279,21.30806 -3.07556,0.35404 -6.07828,-0.37297 -9.02824,-1.15556 -11.29251,-3.56561 -23.21227,-3.88508 -34.94881,-4.03752 -15.00282,0.1506 -29.88647,2.43158 -44.28838,6.60671 -2.27643,0.65994 -4.51562,1.44219 -6.77342,2.16329 -4.31778,1.48151 -8.5971,3.08355 -12.74842,4.98651 -1.32319,0.60655 -2.74248,1.14372 -3.73531,2.23178 1.20597,1.22356 9.86394,-19.73169 18.94477,-19.39657 2.45929,1.00098 3.99966,3.51379 5.30059,5.70055 2.97371,6.10523 5.22147,12.5388 7.74848,18.8378 3.51661,8.60447 6.9917,17.22819 10.61587,25.78755 2.90136,7.52063 6.36723,14.80014 9.73702,22.11601 2.22479,4.37136 4.01473,8.92231 5.41034,13.61827 0.5006,1.43589 0.43324,3.21862 1.43665,4.4147 5.80397,8.07101 1.14171,1.0188 -19.11051,19.0928 -0.10305,0.092 -3.58981,-0.36977 -3.85037,-0.4091 -5.78829,-0.78476 -11.07736,-3.2226 -16.24414,-5.81474 -13.02632,-6.56935 -24.18759,-16.14262 -35.28491,-25.47399 -7.68625,-6.58514 -14.68302,-13.88928 -21.9408,-20.92382 -4.77398,-4.50103 -2.53356,-2.35169 -6.73262,-6.43616 -1.70403,-1.67385 -3.36378,-3.39272 -4.96691,-5.16343 -0.4554,-0.503 -0.89739,-1.2823 -1.56818,-1.49308 -0.074,0.0393 -0.19788,0.0377 -0.22198,0.11791 -0.0299,0.0994 0.0206,0.36538 0.0977,0.2958 5.12634,-4.62806 19.84009,-23.1594 17.88228,-14.98229 -2.15387,4.97389 -5.43949,9.41734 -8.49355,13.86839 -8.02,11.24706 -17.43484,21.38011 -26.76165,31.5335 -6.08678,6.71004 -12.33166,13.28995 -18.04224,20.32951 -0.25903,0.33493 -0.51874,0.66933 -0.7771,1.00478 -0.19919,0.25862 -0.36375,0.82745 -0.66995,0.71429 -0.47669,-0.17618 -1.65541,-1.60557 -1.62377,-1.96413 0.73118,-0.48438 1.40207,-8.7e-4 2.21426,-0.11187 0.097,-0.0564 0.22104,-0.0814 0.29089,-0.16917 0.18863,-0.23702 0.39828,-1.10283 0.18252,-0.89022 -27.22477,26.82824 -19.78345,21.42653 -14.77109,14.62452 2.79286,-3.4332 5.51506,-6.88759 8.11081,-10.47323 0,0 0.66966,-0.57011 0.66966,-0.57011 l 0,0 c 0.96198,-0.30343 1.94518,-0.54636 2.88593,-0.91028 5.6111,-2.17059 1.13106,-0.92433 5.04067,-1.91416 0.19822,0.12549 1.26638,0.56103 0.72246,1.1527 -15.33626,16.68278 -8.97574,16.94887 -18.27437,17.39554 -0.91333,0.13625 -1.48923,0.83189 -2.36899,1.0378 -1.16581,-0.013 -0.66177,0.10963 -2.10821,-1.35749 -1.16468,-1.18133 0.68211,-2.50239 1.30148,-3.39382 6.44151,-7.3558 13.13218,-14.49305 19.74154,-21.69693 8.87073,-9.62032 17.82827,-19.2461 25.29983,-30.02469 2.6791,-4.01244 5.23362,-8.09391 7.45209,-12.38019 4.32139,-7.26537 16.64157,-27.10891 19.13957,-17.87899 0.24074,0.77104 0.74078,1.36656 1.17508,2.04904 1.31278,2.06295 2.57021,4.16086 3.77539,6.28853 1.07496,1.83996 3.82832,6.59458 4.85914,8.16031 5.52164,8.38694 12.28502,15.98184 19.77909,22.64312 2.24311,1.8113 4.40048,3.73423 6.72932,5.4339 9.71165,7.08788 20.81093,11.89382 32.38454,14.986 6.0277,1.25928 12.10631,2.46767 18.28705,2.56307 1.06997,-0.009 2.14284,0.0103 3.20987,-0.084 0.19761,-0.0175 0.7311,-0.21097 0.59097,-0.0705 -18.60587,18.6472 -25.44708,12.72842 -17.93728,18.78491 0.5473,-1.48091 -0.3581,-3.11592 -0.68227,-4.55202 -1.36595,-4.63792 -3.02274,-9.17952 -4.89067,-13.63874 -3.23221,-7.52057 -6.07405,-15.20009 -9.15644,-22.78168 -3.2928,-8.69759 -6.74967,-17.33754 -10.48553,-25.85534 -2.62021,-5.99029 -5.16135,-12.04223 -8.34407,-17.76114 -0.8261,-1.3192 -1.75991,-3.82128 -3.56112,-4.00639 -0.63563,-0.1107 -1.33648,-0.0603 -1.95355,-0.23945 -7.92177,-2.29893 -16.13823,-38.44076 15.05243,-19.64132 1.05111,-0.0442 2.15217,-0.47203 3.16012,-0.71767 3.68051,-0.89697 7.36436,-1.78214 11.05804,-2.62348 16.49597,-3.50168 33.17692,-6.23811 50.06633,-6.7934 2.96396,-0.0804 5.92724,-0.19216 8.89188,-0.24142 10.12428,-0.16821 20.2739,0.34964 30.3781,-0.49052 3.33841,-0.2771 6.78682,-0.3672 10.00112,-1.39287 0.66656,-0.41662 0.42693,-0.15613 0.77668,-0.72405 -6.37657,6.36223 -12.75314,12.72446 -19.12971,19.08669 -0.20239,0.20881 0.66396,0.16836 0.87173,-0.0351 0.11839,-0.11594 0.16106,-0.28964 0.24161,-0.43447 0.51967,-2.71101 -0.0498,-5.47732 -0.85869,-8.07763 -2.90694,-8.06849 -8.01091,-14.1761 -14.16466,-20.06544 -10.47904,-9.75831 -21.51697,-18.85985 -32.4629,-28.08611 -12.01274,-10.08702 -24.01551,-20.47528 -37.92593,-27.89756 -6.50036,-3.02844 -13.07563,-6.28078 -20.20527,-7.51791 -0.8639,0.0243 -0.44883,0.46858 -0.41253,0.0304 -0.0622,-0.30759 -0.34325,-0.52405 -0.67434,-0.48521 -1.20921,-0.3193 -2.31825,-0.24283 -3.20346,-1.37828 -0.27081,-0.38302 -1.11872,-0.79379 -0.81242,-1.14906 13.85986,-16.07512 11.87227,-15.34655 23.33919,-21.22379 12.21669,-6.42389 24.58852,-12.5476 37.08276,-18.41372 7.00452,-3.25747 14.03413,-6.45023 21.07797,-9.62147 1.45503,-0.65507 8.18957,-3.67214 9.94931,-4.5256 1.22699,-0.59508 2.42411,-1.24987 3.63615,-1.87481 3.0569,-1.6903 5.98655,-3.75433 9.3236,-4.84857 0.93427,-0.26236 1.91132,-0.3717 2.78963,-0.78999 8.06531,-5.64208 -5.68812,3.94699 -19.41945,18.97474 -0.36985,0.40477 0.79056,0.76523 1.23428,1.08733 0.12046,0.0874 0.36059,0.25244 0.42994,0.12072 0.23622,-0.44874 -1.60704,-0.83656 -1.05688,-1.09437 -5.5247,-3.33523 -11.37013,-6.06384 -17.60377,-7.81712 -5.05821,-1.31698 -6.77327,-1.89812 -12.11246,-2.69074 -11.08835,-1.6461 -22.31675,-1.46907 -33.48328,-1.01112 -14.58421,0.74637 -29.19332,1.65522 -43.80063,1.00594 -6.01674,-0.24877 -12.03394,-0.37016 -18.05429,-0.4106 -0.29853,-0.076 -0.62249,-0.0855 -0.89556,-0.22812 -0.85646,-0.44723 -1.0599,-0.92973 -1.70335,-1.59241 -0.0231,-0.0238 -0.005,0.0731 0.0164,0.0979 0.1609,0.18229 0.33858,0.34974 0.52077,0.51076 0.37117,0.32806 0.7588,0.63701 1.13821,0.95552 0.22445,-0.39209 0.44857,-0.71939 0.90317,-0.86312 0.0383,-0.0192 0.22248,-0.14846 0.28167,-0.0575 0.0222,0.0341 0.0614,0.26761 0.0522,0.262 -0.92375,-0.56459 -1.79917,-1.20467 -2.69876,-1.80702 1.04956,-1.1582 0.99841,-3.02106 1.73087,-4.33349 2.85588,-8.4971 5.8887,-16.94819 9.89291,-24.9875 3.26683,-6.48212 3.57787,-7.28039 7.24496,-13.7796 5.9669,-10.5752 12.54683,-20.79181 18.46607,-31.39488 6.52485,-11.85766 12.62221,-23.9391 17.49633,-36.583734 0.9458,-2.132574 1.66252,-3.911116 2.79554,-5.919272 4.94727,-8.768474 13.0913,-15.592399 21.37106,-21.219881 0.0901,-0.05239 2.06235,-1.294894 2.44565,-1.206799 0.79417,0.182527 1.53121,0.633718 2.14934,1.164698 0.30375,0.260928 0.75631,0.803692 0.48562,1.098775 -5.29606,5.773305 -11.08703,11.072568 -16.6818,16.556902 -0.29026,0.284533 -0.64445,0.495499 -0.96668,0.743248 -2.51373,2.032561 -4.99087,4.104686 -7.38968,6.273439 -1.40718,1.272226 -5.438,5.282975 -4.17517,3.86735 0.66657,-0.747229 17.20485,-17.500358 2.1461,-2.101971 -17.66857,19.326885 -33.95756,39.923055 -53.3817,57.612105 -13.75726,13.27973 -27.90325,26.17326 -43.0869,37.82298 -2.23575,1.66866 -3.07187,2.33426 -5.15667,3.77271 -0.34331,0.23687 -0.71791,0.42914 -1.04618,0.68644 -0.12553,0.0984 -0.15261,0.42512 -0.30252,0.37069 -0.52641,-0.19111 -0.92548,-0.6322 -1.36695,-0.97678 -0.11656,-0.091 0.25927,0.14227 0.3889,0.21341 0.33517,0.0312 0.74569,-0.20174 0.68573,-0.58936 -0.39265,-0.23623 -1.72912,0.36285 -2.11541,0.5652 -0.0901,0.17107 -0.12827,0.52683 -0.31715,0.4856 -0.43281,-0.0945 -1.41333,-0.70602 -1.83452,-0.84537 -4.37509,-2.28397 -7.02832,-6.56557 -9.82924,-10.46975 -8.64646,-12.20125 -16.94835,-24.65002 -26.02621,-36.54162 -4.87939,-6.2233 -6.4492,-8.38042 -11.59785,-14.33734 -5.10658,-5.90824 -10.51257,-11.47122 -16.09188,-16.92635 -1.40588,-1.37458 -2.80977,-2.75118 -4.21466,-4.12677 -2.07309,-2.02607 -4.08873,-4.11079 -6.17818,-6.11998 -0.70576,-0.67866 -2.68899,-2.47571 -3.66045,-3.15101 -0.22752,-0.15815 -0.93748,-0.15375 -0.75022,-0.35799 4.31945,-4.710949 9.02209,-9.055664 13.53313,-13.583498 -0.15158,0.19093 -0.40257,0.334652 -0.45473,0.572789 -0.16771,0.765738 0.25946,3.076093 0.35305,3.57138 0.728,3.852659 1.51443,7.696813 2.25097,11.549249 1.24192,6.17204 2.53013,12.35569 4.52403,18.34112 2.05595,6.17172 4.79044,12.11832 7.83041,17.8591 2.94724,5.2336 6.10033,10.35107 8.76401,15.73256 0.37459,0.7568 0.81732,1.48086 1.15283,2.25577 0.24369,0.5628 0.3866,1.16407 0.57991,1.74611 0,0 -12.34148,11.37207 -12.34148,11.37207 z"
       inkscape:connector-curvature="0" />
  </g>
</svg>
